<svg width="1257" height="1061" xmlns="http://www.w3.org/2000/svg" xmlns:xlink="http://www.w3.org/1999/xlink" xml:space="preserve" overflow="hidden"><defs><clipPath id="clip0"><rect x="231" y="119" width="1257" height="1061"/></clipPath></defs><g clip-path="url(#clip0)" transform="translate(-231 -119)"><path d="M583.138 726.05 597.669 738.892 649.326 677 666 694.12C666 694.12 623.132 783.704 592.741 785.758 584.524 786.682 576.224 784.95 569.07 780.812 561.917 776.674 556.282 770.349 553 762.775L583.138 726.05Z" fill="#FFFFFF" fill-rule="evenodd"/><path d="M589.324 787.829C581.243 788 573.296 785.762 566.495 781.393 559.693 777.027 554.346 770.732 551.134 763.314 551 762.962 550.966 762.582 551.035 762.213 551.103 761.84 551.271 761.497 551.52 761.217L581.455 724.72C581.835 724.278 582.372 724.001 582.95 723.95 583.238 723.923 583.525 723.953 583.795 724.042 584.069 724.131 584.319 724.275 584.534 724.463L597.364 735.758 647.61 675.772C647.795 675.539 648.028 675.348 648.294 675.215 648.561 675.081 648.852 675.009 649.15 675.002 649.451 674.989 649.752 675.04 650.032 675.15 650.313 675.262 650.566 675.43 650.775 675.646L667.412 692.76C667.709 693.081 667.904 693.485 667.973 693.92 668.041 694.354 667.98 694.799 667.795 695.199 666.044 698.877 624.22 785.903 592.916 788L589.324 787.829ZM555.626 762.927C558.858 769.798 564.172 775.474 570.812 779.152 577.453 782.834 585.082 784.326 592.615 783.422 619.515 781.626 657.833 705.467 663.306 694.385L649.365 680.052 599.372 739.952C599.19 740.178 598.965 740.366 598.708 740.496 598.448 740.63 598.164 740.708 597.877 740.722 597.593 740.746 597.305 740.715 597.032 740.626 596.762 740.537 596.508 740.397 596.293 740.209L583.464 728.956 555.626 762.927Z" fill="#231F20" fill-rule="evenodd"/><path d="M478.583 1096C478.583 1096 470.312 1119.31 471.046 1125.03 471.777 1130.75 499.649 1160.04 507.403 1160 515.157 1159.96 537.557 1158.02 538.935 1153.12 540.314 1148.21 519.292 1144.04 516.146 1142.24 513.003 1140.43 512.872 1125.03 512.872 1125.03L478.583 1096Z" fill="#FFFFFF" fill-rule="evenodd"/><path d="M507.276 1162.74C498.043 1162.74 469.872 1131.92 469.061 1125.69 468.247 1119.47 475.815 1097.98 476.67 1095.43 476.793 1095.11 476.988 1094.83 477.241 1094.59 477.494 1094.36 477.795 1094.19 478.123 1094.09 478.458 1093.99 478.817 1093.97 479.163 1094.05 479.505 1094.12 479.826 1094.29 480.089 1094.52L514.286 1123.75C514.522 1123.94 514.71 1124.19 514.843 1124.46 514.977 1124.74 515.048 1125.04 515.055 1125.35 514.765 1130.61 515.538 1135.87 517.319 1140.82 519.125 1141.53 520.965 1142.14 522.835 1142.64 531.726 1145.36 538.692 1147.7 540.487 1151.28 540.751 1151.74 540.918 1152.26 540.976 1152.78 541.035 1153.31 540.986 1153.85 540.829 1154.35 538.35 1162.27 507.789 1163 507.488 1163L507.276 1162.74ZM479.703 1099.93C476.67 1108.96 472.908 1121.76 473.336 1125.13 474.276 1132.18 502.529 1158.42 507.276 1158.42 518.516 1158.42 535.317 1155.7 536.514 1153.02 535.744 1151.2 525.314 1148.04 521.382 1146.88 519.169 1146.32 517.008 1145.57 514.926 1144.63 511.465 1142.64 510.651 1132.83 510.651 1126.47L479.703 1099.93Z" fill="#231F20" fill-rule="evenodd"/><path d="M529.27 856.843C529.27 856.843 572.582 982.928 566.395 1002.22 560.208 1021.52 512.811 1125 512.811 1125L478.436 1095.95C478.436 1095.95 502.715 1003.47 500.522 988.512 498.333 973.56 463.999 899.472 463.999 899.472 463.999 899.472 421.031 1001.45 394.304 1002.09 367.578 1002.74 277 1011.72 277 1011.72L287.828 972.141C287.828 972.141 378.062 951.945 384.593 942.058 391.124 932.174 412.997 825 412.997 825L524.155 848.032" fill="#231F20" fill-rule="evenodd"/><path d="M512.67 1128C512.159 1127.98 511.664 1127.8 511.256 1127.48L476.938 1098.36C476.623 1098.1 476.393 1097.75 476.269 1097.36 476.149 1096.98 476.142 1096.56 476.252 1096.17 484.574 1064.24 499.887 1000.87 498.257 989.416 496.455 977.052 471.146 921.18 463.939 905.027 460.209 913.643 451.499 932.81 441.032 951.981 421.986 986.746 406.285 1004.49 394.319 1004.79 367.894 1005.4 278.497 1014.36 277.382 1014.44 277.031 1014.48 276.678 1014.43 276.35 1014.31 276.022 1014.18 275.729 1013.97 275.494 1013.71 275.278 1013.44 275.127 1013.11 275.053 1012.77 274.978 1012.43 274.983 1012.07 275.065 1011.73L285.789 972.054C285.89 971.682 286.092 971.344 286.372 971.079 286.652 970.814 286.999 970.628 287.376 970.548 321.694 962.794 378.231 947.974 382.692 941.298 387.925 933.544 404.7 854.494 410.705 824.727 410.75 824.448 410.853 824.179 411.011 823.941 411.165 823.704 411.368 823.504 411.605 823.349 412.089 823.039 412.675 822.929 413.235 823.046L524.252 846.095C524.537 846.151 524.805 846.264 525.041 846.423 525.282 846.585 525.484 846.791 525.646 847.029 525.803 847.27 525.913 847.539 525.972 847.821 526.026 848.104 526.026 848.397 525.968 848.679 525.913 848.961 525.803 849.23 525.642 849.471 525.481 849.709 525.278 849.916 525.038 850.074 524.798 850.236 524.53 850.346 524.249 850.402 523.967 850.46 523.679 850.46 523.394 850.402L414.48 827.786C410.832 845.665 392.603 934.363 386.254 943.796 379.905 953.231 303.334 971.41 289.607 974.555L280.041 1009.92C296.127 1008.37 370.424 1001.3 394.233 1000.57 415.122 1000.06 449.999 927.081 461.88 898.995 462.041 898.613 462.309 898.285 462.652 898.058 462.995 897.827 463.4 897.703 463.812 897.703 464.22 897.7 464.618 897.817 464.961 898.037 465.305 898.261 465.576 898.578 465.74 898.95 467.158 901.968 500.446 973.866 502.632 988.899 504.691 1003.24 483.929 1084.23 480.885 1096.04L511.812 1122.44C519.149 1106.29 558.528 1019.53 564.061 1002.21 568.951 986.874 538.923 892.791 526.956 857.811 526.775 857.24 526.826 856.619 527.1 856.086 527.372 855.555 527.845 855.152 528.415 854.969 528.985 854.787 529.602 854.839 530.131 855.111 530.663 855.386 531.064 855.862 531.246 856.434 533.003 861.601 574.658 983.687 568.35 1003.55 562.046 1023.4 516.874 1122.57 514.729 1126.79 514.609 1127.1 514.41 1127.37 514.156 1127.58 513.899 1127.79 513.597 1127.94 513.271 1128L512.67 1128Z" fill="#231F20" fill-rule="evenodd"/><path d="M598.226 738.857C593.219 750.886 569.005 776.831 570.041 778.033 565.252 772.448 558.432 768.281 553.253 762.741 549.973 759.219 534.867 746.548 534.953 741.993 534.218 780.654 532.664 818.625 529.429 857.155 494.901 874.038 403.444 854.878 402.236 850.841 397.92 835.892 406.165 809.993 407.846 794.786 410.954 766.048 412.421 737.054 416.868 708.533 417.701 700.423 420.197 692.574 424.206 685.463 433.138 671.589 455.022 666.392 470.3 672.578 493.389 681.987 525.717 667.983 546.52 680.053 551.592 683.381 556.105 687.483 559.9 692.21L581.48 716.437C585.147 720.73 588.644 725.028 592.656 728.851 594.383 730.438 598.226 731.984 598.916 734.392 599.144 735.913 598.906 737.473 598.226 738.857L598.226 738.857Z" fill="#C00000" fill-rule="evenodd"/><path d="M456.88 597.729C458.238 597.002 459.689 596.464 461.188 596.133 466.919 594.713 467.178 596.133 471.182 591.825 477.293 585.6 485.151 581.392 493.715 579.755 510.213 576.566 523.353 583.377 521.889 602.127 520.982 609.595 518.518 616.792 514.652 623.244 506.939 637.469 495.135 650.959 479.281 654.191 474.587 655.181 465.627 655.87 461.664 652.465 456.094 647.536 451.879 641.256 449.429 634.232 446.979 627.204 446.368 619.667 447.661 612.339 448.181 609.199 449.291 606.187 450.935 603.461 452.413 601.089 454.457 599.118 456.88 597.729L456.88 597.729Z" fill="#FFFFFF" fill-rule="evenodd"/><path d="M471.354 656.954C467.452 657.242 463.567 656.181 460.35 653.95 454.512 648.804 450.096 642.236 447.53 634.883 444.968 627.526 444.338 619.633 445.704 611.964 446.246 608.555 447.452 605.287 449.257 602.348 450.99 599.708 453.365 597.552 456.153 596.08 457.592 595.273 459.134 594.665 460.733 594.277 462.275 593.889 463.433 593.717 464.416 593.546 466.729 593.158 467.157 593.072 469.6 590.456 475.965 583.885 484.211 579.46 493.194 577.792 503.173 575.859 511.693 577.49 517.174 582.426 519.761 584.991 521.703 588.135 522.844 591.596 523.982 595.06 524.286 598.743 523.728 602.348 522.847 610.096 520.306 617.567 516.277 624.24 509.466 636.778 497.606 652.487 479.661 656.137 476.928 656.682 474.146 656.957 471.354 656.954L471.354 656.954ZM501.073 581.31C498.702 581.31 496.332 581.554 494.009 582.042 485.879 583.525 478.404 587.479 472.597 593.374 471.7 594.59 470.559 595.599 469.243 596.34 467.931 597.078 466.475 597.532 464.975 597.669 464.118 597.669 463.046 597.967 461.634 598.311 460.377 598.617 459.168 599.094 458.037 599.729 455.879 600.858 454.05 602.53 452.727 604.58 451.227 607.034 450.223 609.763 449.771 612.606 448.537 619.548 449.106 626.688 451.426 633.341 453.742 639.994 457.729 645.941 463.005 650.599 465.745 652.92 472.94 653.006 478.678 651.801 494.992 648.454 506.04 633.771 512.422 622.05 516.122 615.891 518.473 609.015 519.316 601.874 519.836 598.939 519.644 595.921 518.757 593.075 517.87 590.226 516.314 587.638 514.221 585.519 510.497 582.553 505.821 581.06 501.073 581.31L501.073 581.31Z" fill="#231F20" fill-rule="evenodd"/><path d="M509.516 664.936 512.66 690.163C511.271 694.467 508.361 698.114 504.48 700.418 500.603 702.719 496.018 703.521 491.593 702.667 474.617 700.546 471.126 688.951 471.126 688.951L466 642.222C466 642.222 477.461 634.261 470.826 608 484.985 612.273 500.034 612.633 514.383 609.038 514.383 609.038 523 637.551 523 650.661 523 663.77 509.688 664.722 509.516 664.936Z" fill="#FFFFFF" fill-rule="evenodd"/><path d="M494.869 704.956C493.712 705.015 492.552 705.015 491.395 704.956 473.323 702.705 469.374 690.253 469.203 689.735L464.011 642.6C463.973 642.213 464.035 641.822 464.193 641.466 464.351 641.11 464.598 640.799 464.911 640.571 464.911 640.571 474.999 632.915 468.904 608.7 468.801 608.323 468.808 607.922 468.921 607.548 469.034 607.171 469.251 606.839 469.546 606.583 469.821 606.303 470.174 606.117 470.556 606.04 470.937 605.961 471.331 605.999 471.692 606.151 485.413 610.2 499.955 610.529 513.841 607.102 514.376 606.978 514.936 607.057 515.413 607.33 515.89 607.604 516.247 608.046 516.416 608.572 516.759 609.782 525 637.587 525 650.816 525.017 654.61 523.705 658.285 521.295 661.197 518.885 664.108 515.53 666.069 511.825 666.729L514.744 689.994C514.785 690.281 514.785 690.571 514.744 690.858 513.329 695.018 510.647 698.625 507.076 701.156 503.508 703.687 499.233 705.018 494.869 704.956L494.869 704.956ZM468.602 643.033 473.409 688.697C473.409 688.697 476.757 698.597 491.91 700.503 495.749 701.28 499.735 700.637 503.141 698.69 506.547 696.744 509.143 693.625 510.452 689.907L507.361 665.173C507.32 664.852 507.351 664.523 507.454 664.216 507.56 663.908 507.732 663.631 507.962 663.399 508.377 663.016 508.903 662.774 509.462 662.708 512.488 662.424 515.303 661.038 517.384 658.807 519.461 656.577 520.66 653.659 520.753 650.602 520.753 639.965 514.785 618.212 512.855 611.684 499.999 614.54 486.663 614.374 473.883 611.21 478.003 631.404 471.136 640.398 468.602 643.033Z" fill="#231F20" fill-rule="evenodd"/><path d="M475.494 639.879C474.68 637.694 473.2 635.831 471.271 634.561 469.41 633.477 467.383 632.722 465.275 632.328 464.154 631.981 462.968 631.909 461.813 632.115 460.992 632.31 460.228 632.691 459.573 633.23 457.928 634.293 456.712 635.923 456.154 637.82 455.867 639.399 455.982 641.022 456.492 642.541 456.867 644.23 457.465 645.859 458.266 647.39 459.995 650.423 462.833 652.643 466.16 653.565 467.809 654.008 469.528 654.114 471.217 653.878 472.903 653.644 474.531 653.072 476 652.193" fill="#FFFFFF" fill-rule="evenodd"/><path d="M469.095 656C467.753 656 466.418 655.831 465.122 655.493 463.141 654.978 461.283 654.088 459.658 652.874 458.03 651.662 456.668 650.15 455.644 648.428 454.694 646.753 453.988 644.959 453.548 643.095 452.964 641.262 452.846 639.316 453.198 637.424 453.922 635.073 455.466 633.039 457.565 631.673 458.488 631.019 459.526 630.532 460.622 630.231 462.062 629.923 463.554 629.923 464.99 630.231 467.425 630.671 469.758 631.513 471.89 632.728 474.3 634.22 476.141 636.433 477.13 639.035 477.238 639.296 477.29 639.576 477.283 639.861 477.276 640.145 477.21 640.422 477.091 640.679 476.969 640.937 476.798 641.17 476.585 641.363 476.368 641.552 476.117 641.701 475.844 641.799 475.568 641.894 475.278 641.938 474.985 641.921 474.695 641.908 474.408 641.837 474.146 641.711 473.884 641.589 473.65 641.414 473.458 641.2 473.266 640.987 473.119 640.74 473.025 640.473 472.371 638.727 471.145 637.242 469.531 636.24 467.823 635.31 465.961 634.667 464.029 634.335 463.18 634.098 462.292 634.011 461.409 634.082 460.86 634.251 460.343 634.508 459.882 634.846 458.635 635.638 457.695 636.815 457.216 638.186 457.02 639.407 457.125 640.652 457.524 641.826 457.88 643.302 458.435 644.726 459.183 646.056 460.682 648.556 463.124 650.394 465.996 651.175 467.456 651.557 468.983 651.652 470.481 651.456 471.98 651.26 473.427 650.776 474.73 650.035 474.974 649.893 475.247 649.798 475.53 649.758 475.816 649.72 476.103 649.737 476.382 649.805 476.658 649.876 476.917 650.001 477.144 650.17 477.371 650.343 477.56 650.552 477.699 650.796 477.989 651.273 478.073 651.845 477.937 652.383 477.797 652.921 477.444 653.385 476.955 653.672 474.604 655.127 471.886 655.929 469.095 656Z" fill="#231F20" fill-rule="evenodd"/><path d="M504 627C504 627 513.538 638.484 511.785 641.013 510.035 643.538 504.897 642.938 504.897 642.938" fill="#FFFFFF" fill-rule="evenodd"/><path d="M506.1 645.986 504.277 645.986C503.714 645.918 503.202 645.625 502.847 645.164 502.494 644.703 502.332 644.112 502.393 643.527 502.454 642.939 502.735 642.401 503.179 642.032 503.619 641.66 504.182 641.49 504.744 641.554 506.554 641.827 508.404 641.565 510.082 640.803 507.886 636.354 505.026 632.301 501.61 628.798 501.217 628.376 501 627.809 501 627.225 501 626.637 501.217 626.073 501.61 625.652 501.803 625.446 502.033 625.28 502.288 625.17 502.542 625.056 502.816 625 503.091 625 503.369 625 503.64 625.056 503.894 625.17 504.151 625.28 504.382 625.446 504.575 625.652 516.053 638.94 514.104 641.866 513.471 642.84 512.539 643.899 511.397 644.732 510.122 645.277 508.848 645.819 507.472 646.064 506.1 645.986L506.1 645.986Z" fill="#231F20" fill-rule="evenodd"/><path d="M496.179 628.997C497.28 628.922 498.091 627.518 497.992 625.863 497.89 624.205 496.92 622.924 495.822 623.003 494.72 623.079 493.909 624.483 494.008 626.138 494.107 627.792 495.081 629.073 496.179 628.997Z" fill="#231F20" fill-rule="evenodd"/><path d="M515.172 625.969C516.5 625.737 517.278 624.218 516.908 622.578 516.539 620.938 515.16 619.796 513.832 620.031 512.5 620.263 511.722 621.782 512.092 623.422 512.461 625.063 513.84 626.205 515.172 625.969Z" fill="#231F20" fill-rule="evenodd"/><path d="M501.76 653.982C497.677 654.147 493.629 653.173 490.049 651.161 489.557 650.846 489.203 650.348 489.064 649.772 488.927 649.195 489.011 648.587 489.305 648.075 489.452 647.82 489.651 647.598 489.882 647.423 490.116 647.248 490.382 647.122 490.665 647.054 490.945 646.99 491.238 646.983 491.521 647.033 491.808 647.086 492.077 647.194 492.322 647.359 498.306 651.118 509.363 648.97 513.121 647.849 513.407 647.767 513.708 647.745 514.002 647.781 514.299 647.817 514.586 647.914 514.844 648.064 515.103 648.211 515.33 648.411 515.516 648.651 515.701 648.891 515.837 649.167 515.917 649.46 515.998 649.754 516.019 650.062 515.984 650.366 515.949 650.667 515.855 650.96 515.708 651.225 515.564 651.494 515.369 651.727 515.131 651.917 514.897 652.103 514.631 652.242 514.344 652.325 510.234 653.417 506.004 653.972 501.76 653.982L501.76 653.982Z" fill="#231F20" fill-rule="evenodd"/><path d="M508.861 665C508.861 665 493.8 670.356 484 666.44 484 666.44 496.836 685.317 511 681.487L508.861 665Z" fill="#231F20" fill-rule="evenodd"/><path d="M507.764 685C493.889 685 482.817 667.902 482.334 667.097 482.089 666.696 481.973 666.227 482.005 665.755 482.036 665.282 482.212 664.831 482.509 664.47 482.807 664.108 483.206 663.85 483.654 663.732 484.102 663.618 484.575 663.65 485.006 663.829 494.109 667.677 508.682 662.308 508.815 662.218 509.116 662.071 509.445 662 509.777 662 510.11 662 510.439 662.071 510.74 662.218 511.02 662.387 511.258 662.619 511.433 662.899 511.609 663.178 511.717 663.496 511.745 663.829L513.979 681.732C514.052 682.269 513.933 682.813 513.643 683.264 513.352 683.719 512.911 684.048 512.403 684.195 510.898 684.675 509.34 684.947 507.764 685L507.764 685ZM489.775 669.513C494.151 674.528 501.549 681.464 509.469 680.433L507.852 667.276C502.015 669.169 495.884 669.928 489.775 669.513L489.775 669.513Z" fill="#231F20" fill-rule="evenodd"/><path d="M288 972.799C288 972.799 266.954 969.84 259.192 971.513 251.429 973.186 224 1062.42 235.989 1058.9 247.979 1055.38 277.089 1012.29 277.089 1012.29L288 972.799Z" fill="#FFFFFF" fill-rule="evenodd"/><path d="M235.439 1061C234.952 1061 234.469 1060.91 234.018 1060.72 233.568 1060.54 233.158 1060.27 232.813 1059.93 228.162 1055.4 233.329 1033.1 238.54 1015.2 240.65 1007.85 251.458 971.098 258.606 969.56 266.659 967.808 287.285 970.715 288.146 970.842 288.449 970.886 288.74 970.992 288.999 971.156 289.259 971.317 289.482 971.532 289.653 971.782 289.822 972.038 289.934 972.328 289.978 972.629 290.023 972.933 290 973.24 289.912 973.534L279.404 1012.84C279.339 1013.07 279.237 1013.29 279.103 1013.48 276.089 1017.76 249.305 1057.02 236.947 1060.78 236.461 1060.94 235.951 1061.01 235.439 1061ZM265.797 973.278C263.705 973.227 261.614 973.384 259.554 973.75 255.247 976.182 241.123 1015.92 236.516 1041.73 234.578 1052.58 235.353 1055.78 235.698 1056.64 245.085 1053.31 267.089 1023.23 275.141 1011.39L285.132 974.774C278.722 973.903 272.266 973.401 265.797 973.278L265.797 973.278Z" fill="#231F20" fill-rule="evenodd"/><path d="M855.994 753.03C855.994 753.03 908.467 772.837 914.453 770.076 920.444 767.312 905.107 698.748 905.107 698.748L925.482 694C925.482 694 951.548 785.739 940.089 801.359 928.629 816.981 869.477 802.222 855.994 786.128 842.508 770.031 855.994 753.03 855.994 753.03Z" fill="#FFFFFF" fill-rule="evenodd"/><path d="M919.32 810C896.176 810 864.083 798.944 854.406 787.409 839.993 770.197 854.406 751.866 854.406 751.694 854.695 751.343 855.084 751.088 855.524 750.968 855.961 750.844 856.426 750.858 856.856 751.005 881.25 760.214 908.479 768.992 913.297 768.218 915.407 763.442 909.815 729.832 903.018 699.368 902.952 699.089 902.945 698.804 902.993 698.525 903.042 698.243 903.145 697.974 903.296 697.737 903.448 697.496 903.644 697.29 903.878 697.125 904.112 696.963 904.374 696.846 904.652 696.787L924.999 692.052C925.536 691.932 926.096 692.021 926.568 692.3 927.039 692.582 927.387 693.03 927.538 693.56 930.247 703.026 953.35 786.508 941.776 802.471 938.379 807.12 931.582 809.615 921.602 809.959L919.32 810ZM856.856 755.61C853.766 759.863 852.172 765.025 852.327 770.279 852.485 775.537 854.378 780.592 857.717 784.656 866.881 795.544 899.617 806.17 921.385 805.654 929.989 805.355 935.754 803.376 938.293 799.932 946.897 788.142 931.324 723.294 923.925 696.656L907.664 700.445C917.644 745.627 920.225 769.68 915.321 771.962 909.04 774.588 870.708 760.902 856.684 755.61L856.856 755.61Z" fill="#231F20" fill-rule="evenodd"/><path d="M821.283 436.518 1100 584.695C1018.77 737.774 826.138 796.745 673.177 715.451 520.213 634.16 461.291 441.334 542.521 288.298 623.751 135.26 816.469 76.2472 969.389 157.54 1020.95 184.962 1063.91 226.161 1093.47 276.555L821.283 436.518Z" fill="#FFFFFF" fill-rule="evenodd"/><path d="M819.614 754C751.864 753.879 685.954 731.97 631.617 691.504 577.28 651.037 537.4 594.164 517.868 529.286 495.135 454.914 500.488 374.782 532.914 304.094 565.336 233.407 622.578 177.081 693.773 145.805 764.967 114.528 845.163 110.476 919.149 134.417 993.132 158.359 1055.76 208.627 1095.14 275.686 1095.28 275.928 1095.38 276.196 1095.42 276.475 1095.46 276.754 1095.44 277.038 1095.37 277.311 1095.3 277.584 1095.17 277.839 1095 278.062 1094.83 278.285 1094.61 278.471 1094.37 278.609L825.5 436.484 1100.86 582.629C1101.36 582.9 1101.73 583.361 1101.9 583.907 1102.07 584.45 1102.02 585.042 1101.76 585.55 1082.22 622.429 1055.56 655.059 1023.32 681.556 991.083 708.051 953.906 727.884 913.948 739.904 883.379 749.27 851.582 754.024 819.614 754L819.614 754ZM822.664 123.182C791.108 123.207 759.731 127.945 729.575 137.237 680.556 152.383 636.018 179.352 599.876 215.768 563.734 252.184 537.102 296.93 522.321 346.063 507.54 395.199 505.068 447.215 515.121 497.529 525.174 547.844 547.443 594.913 579.969 634.593 612.494 674.276 654.278 705.346 701.639 725.075 748.997 744.802 800.48 752.58 851.555 747.72 902.625 742.863 951.72 725.519 994.511 697.216 1037.31 668.914 1072.48 630.523 1096.95 585.423L820.085 438.333C819.748 438.154 819.47 437.89 819.27 437.563 819.074 437.24 818.971 436.865 818.968 436.484 818.964 436.099 819.06 435.714 819.25 435.377 819.439 435.037 819.71 434.751 820.044 434.552L1090.37 275.686C1061.01 226.561 1018.75 186.422 968.185 159.632 923.403 135.728 873.425 123.211 822.664 123.182L822.664 123.182Z" fill="#231F20" fill-rule="evenodd"/><path d="M636.391 682.3C630.863 688.641 607.713 707.136 607.713 707.136 607.713 707.136 566.941 786.001 547.694 786.001 528.443 786.001 434.687 733.655 434.687 733.655 434.687 733.655 424.141 723.653 434.687 705.412 445.233 687.175 535.004 742.02 535.004 742.02L587.392 689.199C587.392 689.199 592.022 675.145 592.92 669.797 593.822 664.449 593.178 652.55 598.751 654.146 604.324 655.739 600.682 673.418 600.682 673.418 600.682 673.418 619.373 650.522 625.804 657.853 632.234 665.184 641.837 675.962 636.391 682.3Z" fill="#FFFFFF" fill-rule="evenodd"/><path d="M547.209 788C527.691 788 436.717 737.554 432.848 735.442L432.418 735.097C431.943 734.667 420.724 723.725 432.029 704.253 432.69 703.155 433.57 702.204 434.612 701.463 435.654 700.722 436.841 700.206 438.093 699.944 458.771 694.645 523.347 732.641 534.181 739.149L585.171 688.227C585.945 685.685 589.687 674.181 590.416 669.613 590.416 668.494 590.719 667.115 590.846 665.607 591.276 660.439 591.706 655.095 594.76 652.897 595.379 652.47 596.087 652.185 596.83 652.064 597.573 651.943 598.337 651.995 599.059 652.208 603.789 653.459 604.173 660.825 603.658 666.771 608.645 661.558 616.556 654.537 622.231 654.406 623.177 654.4 624.112 654.593 624.979 654.971 625.845 655.35 626.623 655.905 627.263 656.604L627.865 657.249C634.785 665.307 644.329 676.293 637.839 683.876 628.718 692.609 619.159 700.877 609.205 708.646 603.875 718.382 566.856 788 547.209 788ZM435.211 731.997C467.672 750.004 532.506 783.694 547.209 783.694 561.913 783.694 594.199 727.687 605.422 706.148 605.546 705.876 605.739 705.639 605.979 705.459 606.237 705.459 629.11 687.018 634.441 680.944 638.527 676.162 630.141 666.426 624.466 659.963L623.909 659.319C623.703 659.064 623.441 658.865 623.139 658.737 622.839 658.61 622.513 658.558 622.189 658.585 617.072 658.585 607.097 668.58 602.024 674.829 601.714 675.187 601.295 675.439 600.827 675.539 600.363 675.642 599.878 675.587 599.444 675.387 599.008 675.184 598.653 674.839 598.437 674.412 598.216 673.981 598.148 673.492 598.241 673.017 599.919 664.876 599.702 656.732 597.855 656.26 597.425 656.26 597.295 656.26 597.253 656.26 595.833 657.249 595.403 662.592 595.145 665.823 595.145 667.419 594.846 668.924 594.674 670.133 593.769 675.559 589.257 689.302 589.085 689.863 588.954 690.174 588.779 690.463 588.569 690.725L536.031 743.455C535.681 743.793 535.23 744.006 534.748 744.062 534.267 744.117 533.778 744.01 533.366 743.758 512.901 731.308 455.978 699.813 439.166 704.209 438.475 704.319 437.814 704.577 437.23 704.963 436.642 705.349 436.146 705.856 435.771 706.448 426.829 721.785 433.966 730.446 435.211 731.825L435.211 731.997Z" fill="#231F20" fill-rule="evenodd"/><path d="M504 715.69 476.342 763C476.342 763 426.959 743.474 422.268 725.885 417.581 708.292 426.57 679.133 438.057 682.228 449.541 685.324 504 715.69 504 715.69Z" fill="#C00000" fill-rule="evenodd"/><path d="M1267.36 693.671 1224.77 682.417 1211.9 597.747 1179 584C1179 584 1183.29 695.474 1198.22 705.226 1227.21 724.47 1278 731 1278 731L1267.36 693.671Z" fill="#FFFFFF" fill-rule="evenodd"/><path d="M1277.88 734 1277.59 734C1275.49 733.7 1226.25 726.973 1197.11 707.614 1181.92 697.484 1177.47 595.818 1177 584.219 1177 583.857 1177.09 583.499 1177.25 583.178 1177.41 582.854 1177.65 582.578 1177.94 582.364 1178.25 582.171 1178.59 582.051 1178.94 582.013 1179.3 581.975 1179.66 582.023 1179.99 582.151L1212.77 595.945C1213.11 596.076 1213.41 596.297 1213.64 596.587 1213.86 596.876 1214.01 597.221 1214.05 597.583L1226.63 681.141 1267.7 692.095C1268.06 692.181 1268.39 692.364 1268.65 692.619 1268.91 692.877 1269.1 693.202 1269.2 693.56L1279.94 731.286C1280.02 731.631 1280.02 731.99 1279.94 732.334 1279.86 732.679 1279.69 733 1279.47 733.269 1279.27 733.5 1279.03 733.686 1278.76 733.813 1278.48 733.938 1278.18 734.003 1277.88 734L1277.88 734ZM1181.45 587.408C1183.38 631.947 1189.58 697.397 1199.46 703.821 1223.46 719.815 1263.3 727.146 1274.89 729.001L1265.44 695.715 1224.19 684.72C1223.79 684.623 1223.42 684.406 1223.14 684.099 1222.86 683.793 1222.67 683.41 1222.61 682.996L1210.03 599.224 1181.45 587.408Z" fill="#231F20" fill-rule="evenodd"/><path d="M1448.62 1135.77C1449.44 1138.09 1457.22 1151.17 1455.5 1153.7 1453.78 1156.24 1429 1172.06 1436.36 1174.43 1443.72 1176.79 1486 1171.07 1486 1171.07L1460.41 1104 1448.62 1135.77Z" fill="#FFFFFF" fill-rule="evenodd"/><path d="M1443.03 1176.97C1440.61 1177.08 1438.19 1176.87 1435.82 1176.33 1435.14 1176.16 1434.5 1175.8 1434.01 1175.28 1433.52 1174.76 1433.19 1174.12 1433.06 1173.41 1432.41 1169.73 1437.32 1165.32 1448.36 1156.75 1450.21 1155.42 1451.99 1153.99 1453.68 1152.47 1452.38 1148.31 1450.65 1144.31 1448.53 1140.51 1447.81 1139.21 1447.17 1137.86 1446.61 1136.48 1446.44 1136.02 1446.44 1135.5 1446.61 1135.03L1458.33 1103.42C1458.47 1103 1458.73 1102.64 1459.08 1102.38 1459.43 1102.13 1459.86 1102 1460.29 1102L1460.29 1102C1460.72 1102 1461.15 1102.13 1461.5 1102.37 1461.86 1102.62 1462.14 1102.97 1462.29 1103.37L1487.87 1170.2C1487.98 1170.51 1488.02 1170.83 1487.99 1171.15 1487.96 1171.47 1487.86 1171.78 1487.7 1172.07 1487.54 1172.34 1487.32 1172.58 1487.05 1172.76 1486.78 1172.95 1486.48 1173.07 1486.16 1173.11 1482.45 1173.54 1456.88 1176.97 1443.03 1176.97ZM1437.4 1172.3C1443.2 1173.63 1466.51 1171.27 1482.71 1169.17L1460.33 1110.18 1450.91 1135.89 1452.32 1138.71C1456.97 1147.97 1458.8 1152.47 1457.27 1154.95 1455.39 1157.02 1453.26 1158.83 1450.91 1160.35 1445.93 1163.74 1441.39 1167.76 1437.4 1172.3L1437.4 1172.3Z" fill="#231F20" fill-rule="evenodd"/><path d="M1329.38 1123C1329.38 1123 1344.24 1164.97 1341.71 1165.96 1339.18 1166.94 1276.34 1181.13 1279.09 1177.37 1281.83 1173.6 1311.12 1158.6 1311.47 1160.27 1311.81 1161.94 1307.5 1139.88 1307.5 1139.88L1329.38 1123Z" fill="#FFFFFF" fill-rule="evenodd"/><path d="M1281.05 1180C1279.14 1180 1277.83 1179.79 1277.44 1179.28 1277.15 1178.84 1277 1178.34 1277 1177.82 1277 1177.3 1277.15 1176.8 1277.44 1176.37 1279.66 1173.29 1300.97 1161.37 1309.14 1158.81 1308.36 1155.69 1307.27 1150.26 1305.45 1140.65 1305.36 1140.26 1305.39 1139.86 1305.53 1139.49 1305.67 1139.12 1305.91 1138.79 1306.23 1138.55L1327.97 1121.46C1328.25 1121.25 1328.56 1121.11 1328.9 1121.04 1329.24 1120.98 1329.59 1120.99 1329.93 1121.08 1330.26 1121.17 1330.56 1121.35 1330.81 1121.59 1331.06 1121.82 1331.25 1122.12 1331.36 1122.44 1346.89 1166.28 1344.63 1167.18 1342.45 1168.04 1342.02 1168.38 1294.88 1180 1281.05 1180ZM1310.66 1162.7C1301.81 1166.36 1293.28 1170.72 1285.14 1175.73 1298.53 1173.89 1332.45 1166.58 1339.75 1164.53 1336.74 1151.73 1332.92 1139.14 1328.32 1126.8L1309.92 1141.11C1310.71 1145.39 1313.27 1158.55 1313.58 1160.09 1313.68 1160.66 1313.56 1161.25 1313.24 1161.73 1312.91 1162.22 1312.41 1162.56 1311.84 1162.7 1311.4 1162.87 1311.01 1162.95 1310.53 1162.7L1310.66 1162.7ZM1309.71 1160.98 1309.36 1160.98C1309.41 1161.26 1309.53 1161.52 1309.69 1161.75 1309.86 1161.98 1310.07 1162.17 1310.32 1162.31 1310.05 1161.9 1309.85 1161.45 1309.71 1160.98L1309.71 1160.98Z" fill="#231F20" fill-rule="evenodd"/><path d="M1305.85 874.295C1305.85 874.295 1262.56 963.894 1262.01 992.273 1261.45 1020.65 1298.55 1140 1298.55 1140L1336.25 1133.72C1336.25 1133.72 1308.12 1014.46 1312.37 1001.99 1316.62 989.518 1349.13 909.292 1349.13 909.292 1349.13 909.292 1362.01 978.083 1370.99 1003.41 1379.96 1028.73 1437.5 1137.42 1437.5 1137.42L1477 1129.81C1477 1129.81 1424.66 1008.26 1422.73 987.284 1420.79 966.301 1410.49 854 1410.49 854L1305.85 874.295Z" fill="#231F20" fill-rule="evenodd"/><path d="M1298.63 1142.61C1298.18 1142.61 1297.73 1142.47 1297.36 1142.2 1296.99 1141.93 1296.71 1141.54 1296.58 1141.11 1295.08 1136.2 1259.49 1020.91 1260.01 992.443 1260.52 963.976 1302.23 877.071 1303.99 873.369 1304.14 873.066 1304.36 872.804 1304.63 872.601 1304.9 872.401 1305.21 872.264 1305.54 872.205L1409.98 852.052C1410.27 851.983 1410.58 851.983 1410.88 852.052 1411.18 852.117 1411.45 852.251 1411.69 852.438 1411.93 852.617 1412.12 852.844 1412.26 853.102 1412.4 853.364 1412.49 853.65 1412.51 853.946L1424.73 987.446C1426.61 1007.9 1478.28 1128.36 1478.79 1129.56 1478.93 1129.85 1479 1130.17 1479 1130.49 1479 1130.81 1478.93 1131.13 1478.79 1131.42 1478.64 1131.69 1478.43 1131.94 1478.18 1132.13 1477.93 1132.32 1477.64 1132.46 1477.33 1132.53L1437.76 1140.2C1437.31 1140.29 1436.84 1140.23 1436.42 1140.03 1436 1139.83 1435.66 1139.49 1435.45 1139.08 1433.13 1134.77 1378 1029.87 1368.95 1004.59 1361.57 983.916 1351.8 935.682 1348.37 917.209 1340.48 936.846 1317.97 992.96 1314.54 1003.34 1311.54 1011.95 1327.19 1086.33 1338.42 1134.13 1338.49 1134.41 1338.5 1134.71 1338.44 1135 1338.39 1135.29 1338.28 1135.56 1338.12 1135.81 1337.95 1136.05 1337.73 1136.25 1337.48 1136.41 1337.23 1136.56 1336.96 1136.67 1336.66 1136.71L1298.98 1143 1298.63 1142.61ZM1307.21 876.21C1302.58 885.987 1264.64 966.649 1264.12 992.488 1263.61 1018.33 1295.33 1122.97 1299.96 1138L1333.53 1132.41C1328.95 1112.73 1306.14 1013.59 1310.3 1001.45 1314.46 989.299 1345.67 911.826 1346.95 908.51 1347.14 908.079 1347.45 907.722 1347.85 907.49 1348.26 907.257 1348.72 907.16 1349.18 907.219 1349.64 907.257 1350.08 907.446 1350.42 907.759 1350.76 908.069 1350.99 908.486 1351.07 908.94 1351.07 909.629 1363.93 977.845 1372.81 1002.91 1381.38 1026.29 1431.59 1122.59 1438.36 1135.42L1473.65 1128.57C1466.01 1110.74 1422.2 1007.34 1420.31 987.618 1418.42 967.895 1409.81 872.98 1408.31 856.66L1307.21 876.21Z" fill="#231F20" fill-rule="evenodd"/><path d="M1329 714.732 1228 677 1231.23 729.87 1311.43 765 1329 714.732Z" fill="#C00000" fill-rule="evenodd"/><path d="M1300.6 722.964C1303.61 718.666 1365.82 704.559 1384.63 720.172 1403.45 735.781 1416.08 846.083 1419 880.142L1296.57 889C1296.57 889 1283.98 745.63 1300.6 722.964Z" fill="#C00000" fill-rule="evenodd"/><path d="M1295.73 879C1295.17 878.99 1294.63 878.784 1294.22 878.418 1293.81 878.054 1293.55 877.558 1293.51 877.027 1293.15 872.96 1285.36 777.332 1291.11 753.682 1291.17 753.408 1291.29 753.144 1291.47 752.914 1291.64 752.681 1291.86 752.486 1292.11 752.332 1292.36 752.181 1292.64 752.078 1292.94 752.03 1293.23 751.982 1293.54 751.993 1293.83 752.054 1294.12 752.116 1294.39 752.229 1294.63 752.393 1294.88 752.558 1295.08 752.763 1295.24 753.003 1295.4 753.243 1295.5 753.51 1295.55 753.791 1295.59 754.069 1295.58 754.353 1295.5 754.627 1289.93 777.633 1297.95 875.701 1297.99 876.684 1298.02 876.968 1297.98 877.249 1297.89 877.52 1297.8 877.787 1297.66 878.037 1297.46 878.253 1297.27 878.469 1297.03 878.644 1296.76 878.774 1296.5 878.901 1296.21 878.976 1295.91 879L1295.73 879Z" fill="#231F20" fill-rule="evenodd"/><path d="M1363.09 702.221C1369.21 704.234 1375.78 704.546 1382.07 703.119 1384.92 702.554 1387.54 701.13 1389.55 699.044 1390.53 697.988 1391.14 696.639 1391.28 695.206 1391.42 693.775 1391.09 692.334 1390.33 691.109 1391.93 691.096 1393.51 690.701 1394.92 689.953 1396.34 689.206 1397.55 688.132 1398.45 686.818 1400.29 684.228 1401.38 681.189 1401.61 678.026 1402.02 676.016 1401.91 673.937 1401.28 671.985 1400.65 670.033 1399.53 668.273 1398.02 666.874 1401.05 665.114 1404.38 662.884 1404.94 659.45 1405.12 657.704 1404.89 655.941 1404.25 654.304 1403.11 651.001 1401.67 647.811 1399.92 644.778 1399.06 643.193 1397.72 641.392 1395.86 641.478 1396.94 638.319 1397.1 634.929 1396.33 631.684 1395.57 628.442 1393.91 625.475 1391.54 623.115 1389.22 620.765 1386.18 619.256 1382.89 618.827 1379.39 618.93 1375.9 619.345 1372.47 620.072 1370.59 617.969 1368.25 616.333 1365.62 615.29 1363 614.247 1360.16 613.825 1357.34 614.065 1355.16 614.546 1353.15 615.592 1351.52 617.102 1349.88 618.611 1348.68 620.522 1348.04 622.645 1344.1 622.316 1340.13 622.841 1336.42 624.189 1334.57 624.878 1332.9 625.959 1331.53 627.362 1330.15 628.761 1329.1 630.449 1328.46 632.295 1327.89 634.178 1327.96 636.195 1328.68 638.027 1329.39 639.862 1330.7 641.406 1332.39 642.422 1330.15 642.912 1328.15 644.205 1326.8 646.054 1325.44 647.907 1324.82 650.185 1325.04 652.459 1325.37 654.72 1326.36 656.836 1327.9 658.534 1329.44 660.229 1331.46 661.43 1333.69 661.982 1334.33 662.047 1334.95 662.283 1335.46 662.668 1335.97 663.289 1336.32 664.026 1336.46 664.812 1337.28 667.216 1339.62 668.16 1340.78 670.174 1342.24 673.22 1343.45 676.376 1344.41 679.614 1345.61 682.633 1346.99 685.583 1348.52 688.451 1349.85 691.892 1351.51 695.199 1353.49 698.317 1355.57 700.804 1357.81 700.632 1360.71 701.534L1363.09 702.221Z" fill="#FFFFFF" fill-rule="evenodd"/><path d="M1374.5 706C1370.4 705.928 1366.33 705.295 1362.4 704.117L1362.4 704.117 1360.12 703.477C1359.47 703.262 1358.82 703.135 1358.26 703.005 1355.8 702.653 1353.55 701.42 1351.94 699.538 1350.34 697.423 1349.06 695.085 1348.15 692.604 1347.73 691.492 1347.24 690.403 1346.68 689.352 1345.35 686.7 1343.76 683.53 1342.38 680.32 1341.99 679.338 1341.64 678.226 1341.3 677.11 1340.71 675.08 1339.92 673.116 1338.93 671.247 1338.49 670.607 1337.95 670.028 1337.34 669.536 1336.02 668.45 1335 667.051 1334.37 665.469L1334.37 664.956C1334.31 664.706 1334.22 664.46 1334.11 664.227L1333.51 664.227C1330.81 663.597 1328.36 662.167 1326.5 660.127 1324.63 658.087 1323.42 655.534 1323.04 652.802 1322.86 650.663 1323.26 648.514 1324.22 646.59 1325.18 644.664 1326.65 643.038 1328.47 641.888 1327.39 640.485 1326.66 638.856 1326.33 637.127 1325.99 635.395 1326.06 633.612 1326.53 631.914 1327.25 629.748 1328.45 627.766 1330.04 626.117 1331.62 624.467 1333.56 623.187 1335.7 622.372 1339.2 621.072 1342.92 620.49 1346.64 620.657 1347.55 618.522 1348.96 616.633 1350.75 615.147 1352.54 613.659 1354.65 612.614 1356.93 612.098 1359.89 611.807 1362.89 612.166 1365.69 613.159 1368.5 614.151 1371.05 615.746 1373.16 617.834 1376.44 617.211 1379.77 616.869 1383.11 616.807 1386.86 617.351 1390.32 619.111 1392.97 621.815 1395.37 624.166 1397.13 627.082 1398.11 630.289 1399.07 633.499 1399.22 636.898 1398.52 640.176 1399.92 641.107 1401.05 642.391 1401.79 643.901 1403.52 647.046 1404.96 650.342 1406.1 653.744 1406.88 655.698 1407.16 657.817 1406.92 659.904 1406.54 661.468 1405.84 662.94 1404.87 664.227 1403.9 665.514 1402.68 666.592 1401.28 667.397 1403.37 670.627 1404.2 674.512 1403.6 678.311 1403.34 681.853 1402.1 685.259 1400.03 688.154 1398.34 690.382 1395.97 692.005 1393.27 692.775 1393.46 694.113 1393.37 695.479 1392.99 696.779 1392.61 698.077 1391.96 699.281 1391.07 700.308 1388.78 702.745 1385.76 704.395 1382.46 705.017 1379.86 705.685 1377.18 706.013 1374.5 706L1374.5 706ZM1363.56 700.01C1369.32 701.875 1375.48 702.17 1381.39 700.866 1383.79 700.428 1386 699.261 1387.71 697.525 1388.36 696.831 1388.78 695.948 1388.91 695.003 1389.03 694.062 1388.85 693.104 1388.4 692.262 1388.19 691.923 1388.07 691.529 1388.07 691.129 1388.07 690.725 1388.19 690.331 1388.4 689.996 1388.57 689.619 1388.85 689.311 1389.21 689.109 1389.56 688.907 1389.98 688.829 1390.38 688.88 1391.62 688.835 1392.83 688.51 1393.91 687.932 1395 687.354 1395.95 686.535 1396.67 685.543 1398.28 683.277 1399.24 680.611 1399.43 677.839 1399.43 676.298 1399.86 671.035 1396.67 668.724 1396.39 668.509 1396.16 668.228 1396.01 667.906 1395.86 667.588 1395.79 667.236 1395.81 666.883 1395.82 666.527 1395.92 666.181 1396.1 665.877 1396.28 665.569 1396.54 665.312 1396.84 665.127 1399.47 663.587 1402.31 661.705 1402.74 659.179 1402.88 657.721 1402.66 656.252 1402.09 654.897 1401.05 651.748 1399.73 648.695 1398.13 645.783 1397.23 644.157 1396.63 643.644 1396.07 643.599 1395.71 643.634 1395.35 643.569 1395.03 643.411 1394.71 643.25 1394.44 643.004 1394.26 642.699 1394.04 642.418 1393.9 642.086 1393.85 641.734 1393.79 641.381 1393.83 641.022 1393.96 640.69 1394.87 637.921 1395 634.95 1394.31 632.116 1393.63 629.282 1392.16 626.695 1390.08 624.638 1388.09 622.598 1385.47 621.274 1382.63 620.873 1381.64 620.873 1375.14 621.558 1373.59 621.9 1373.16 622.15 1372.65 622.235 1372.16 622.14 1371.67 622.047 1371.23 621.777 1370.92 621.387 1369.3 619.607 1367.3 618.21 1365.07 617.3 1362.83 616.389 1360.42 615.986 1358.01 616.123 1356.22 616.509 1354.57 617.365 1353.23 618.601 1351.89 619.833 1350.91 621.404 1350.39 623.142 1350.26 623.604 1349.98 624.008 1349.58 624.289 1349.19 624.569 1348.72 624.71 1348.23 624.683 1344.62 624.344 1340.97 624.813 1337.56 626.052 1336.02 626.613 1334.62 627.506 1333.48 628.667 1332.33 629.83 1331.46 631.23 1330.93 632.77 1330.48 634.17 1330.52 635.672 1331.03 637.052 1331.53 638.428 1332.48 639.602 1333.72 640.389 1334.11 640.601 1334.42 640.93 1334.62 641.327 1334.82 641.724 1334.88 642.169 1334.81 642.607 1334.74 643.041 1334.54 643.445 1334.22 643.76 1333.91 644.078 1333.52 644.29 1333.08 644.369 1331.39 644.79 1329.9 645.8 1328.89 647.21 1327.88 648.624 1327.41 650.349 1327.57 652.073 1327.84 653.894 1328.66 655.592 1329.91 656.947 1331.16 658.306 1332.78 659.261 1334.58 659.692 1335.56 659.874 1336.47 660.284 1337.25 660.89 1337.97 661.633 1338.47 662.547 1338.72 663.542 1339.08 664.6 1339.76 665.528 1340.66 666.199 1341.56 666.972 1342.36 667.865 1343.02 668.851 1344.18 671.004 1345.1 673.269 1345.78 675.614 1346.12 676.682 1346.42 677.668 1346.81 678.609 1347.97 681.535 1349.29 684.393 1350.77 687.169 1351.37 688.326 1351.89 689.523 1352.41 690.766 1353.15 692.857 1354.2 694.832 1355.51 696.629 1356.52 697.775 1357.94 698.48 1359.47 698.597L1361.67 699.155 1363.82 699.794 1363.56 700.01Z" fill="#231F20" fill-rule="evenodd"/><path d="M1334 665C1334 665 1322.14 675.534 1323.05 678.767 1323.96 682 1330.12 682 1330.12 682" fill="#FFFFFF" fill-rule="evenodd"/><path d="M1330.07 684C1329.2 684 1322.43 684 1321.12 679.275 1320.26 676.27 1324.11 670.988 1332.65 663.516 1332.85 663.33 1333.09 663.19 1333.35 663.104 1333.6 663.018 1333.87 662.984 1334.14 663.008 1334.41 663.031 1334.67 663.114 1334.91 663.245 1335.14 663.375 1335.35 663.554 1335.52 663.773 1335.87 664.213 1336.04 664.78 1335.99 665.35 1335.95 665.92 1335.69 666.449 1335.28 666.823 1331.22 669.948 1327.76 673.853 1325.1 678.33 1325.3 678.976 1327.97 679.704 1330.11 679.704 1330.65 679.704 1331.17 679.931 1331.56 680.332 1331.94 680.734 1332.16 681.284 1332.16 681.85 1332.16 682.421 1331.94 682.966 1331.56 683.368 1331.17 683.773 1330.65 684 1330.11 684L1330.07 684Z" fill="#231F20" fill-rule="evenodd"/><path d="M1345.72 638.019C1344.77 638.214 1343.92 638.745 1343.33 639.519 1341.11 642.032 1339.36 644.936 1338.17 648.083 1335.69 654.33 1333.58 660.72 1331.87 667.227 1329.39 675.792 1327.14 684.356 1325.09 692.921 1323.77 698.4 1337.62 702.726 1340.56 701.828L1332.04 722.512C1332.04 722.512 1338.13 726.365 1350.92 724.482 1363.71 722.598 1364.61 719.985 1364.61 719.985L1371 695.106C1367.94 693.866 1365.27 691.818 1363.28 689.182 1361.28 686.541 1360.03 683.407 1359.66 680.117 1359.66 677.86 1359.46 675.61 1359.06 673.391 1358.13 671.124 1356.04 670.096 1355.7 667.353 1355.54 666.093 1355.68 664.816 1356.1 663.617 1356.52 662.419 1357.21 661.34 1358.13 660.46 1358.55 660.073 1359.02 659.604 1358.89 659.09 1358.78 658.775 1358.58 658.504 1358.3 658.319 1357 657.011 1356.27 655.241 1356.27 653.395 1356.27 651.549 1357 649.779 1358.3 648.47 1354.8 647.399 1353.52 643.159 1352.75 639.56 1353.01 640.676 1347.17 638.149 1347.09 638.149 1346.64 638.015 1346.18 637.971 1345.72 638.019L1345.72 638.019Z" fill="#FFFFFF" fill-rule="evenodd"/><path d="M1343.68 726.964C1339.01 727.205 1334.35 726.241 1330.16 724.164 1329.73 723.888 1329.4 723.472 1329.25 722.982 1329.09 722.497 1329.1 721.97 1329.29 721.494L1336.72 703.574C1332.2 702.854 1327.94 700.967 1324.37 698.105 1323.47 697.413 1322.78 696.479 1322.38 695.411 1321.99 694.347 1321.9 693.19 1322.12 692.077 1324.24 683.463 1326.44 674.849 1329.04 666.235L1329.55 664.424C1331.17 658.407 1333.16 652.493 1335.51 646.724 1336.79 643.218 1338.73 639.987 1341.22 637.204 1342.15 636.102 1343.43 635.358 1344.85 635.093L1344.85 635.093C1345.53 634.969 1346.23 634.969 1346.92 635.093L1347.52 635.31C1348.74 635.844 1350 636.288 1351.28 636.646L1351.76 636.646C1352.04 636.581 1352.32 636.577 1352.61 636.629 1352.89 636.677 1353.15 636.787 1353.39 636.942 1353.63 637.101 1353.83 637.304 1353.99 637.542 1354.15 637.779 1354.26 638.045 1354.31 638.324 1354.95 641.341 1355.99 644.916 1358.63 645.646 1358.99 645.756 1359.32 645.96 1359.58 646.242 1359.84 646.521 1360.02 646.869 1360.1 647.241 1360.18 647.613 1360.16 647.998 1360.04 648.36 1359.93 648.722 1359.73 649.049 1359.45 649.307 1358.57 650.206 1358.08 651.412 1358.08 652.669 1358.08 653.922 1358.57 655.128 1359.45 656.027 1360.08 656.478 1360.54 657.133 1360.74 657.88 1360.85 658.524 1360.78 659.185 1360.54 659.795 1360.29 660.401 1359.89 660.931 1359.36 661.324 1358.68 661.982 1358.17 662.784 1357.85 663.676 1357.54 664.565 1357.43 665.512 1357.55 666.449 1357.76 667.43 1358.26 668.326 1358.97 669.032 1359.72 669.921 1360.35 670.906 1360.83 671.963 1361.34 673.516 1361.54 675.156 1361.43 676.785 1361.37 677.588 1361.37 678.397 1361.43 679.199 1361.7 682.175 1362.77 685.024 1364.53 687.438 1366.3 689.849 1368.69 691.736 1371.46 692.894 1371.99 693.045 1372.45 693.4 1372.72 693.886 1373 694.368 1373.07 694.943 1372.92 695.48L1366.49 720.544C1365.8 722.483 1362.6 724.852 1350.85 726.661 1348.47 726.94 1346.08 727.04 1343.68 726.964L1343.68 726.964ZM1334.09 721.191C1339.29 722.81 1344.8 723.151 1350.16 722.183 1354.44 721.977 1358.62 720.816 1362.38 718.781L1368.26 695.997C1365.25 694.358 1362.66 692.026 1360.74 689.195 1358.8 686.363 1357.58 683.112 1357.16 679.716 1357 678.69 1356.92 677.653 1356.94 676.613 1357.02 675.528 1356.92 674.436 1356.64 673.382 1356.32 672.704 1355.91 672.067 1355.43 671.488 1354.21 670.169 1353.4 668.522 1353.1 666.752 1352.91 665.24 1353.06 663.707 1353.54 662.264 1354.02 660.818 1354.81 659.498 1355.86 658.396 1354.42 656.764 1353.62 654.67 1353.62 652.493 1353.6 651.002 1353.94 649.524 1354.61 648.188 1352.5 646.204 1351.07 643.614 1350.51 640.779 1348.94 640.355 1347.41 639.822 1345.93 639.185 1345.75 639.157 1345.58 639.157 1345.41 639.185 1345.19 639.185 1344.89 639.488 1344.24 640.09 1342.18 642.512 1340.57 645.284 1339.49 648.274 1337.21 653.888 1335.29 659.643 1333.75 665.502L1333.18 667.355C1330.72 675.969 1328.39 684.583 1326.32 693.197 1326.32 693.714 1326.62 694.316 1327.22 695.005 1330.68 697.75 1334.91 699.348 1339.32 699.572 1339.71 699.486 1340.12 699.503 1340.51 699.624 1340.9 699.744 1341.24 699.965 1341.52 700.261 1341.79 700.55 1341.97 700.912 1342.04 701.301 1342.11 701.69 1342.06 702.09 1341.91 702.455L1334.09 721.191Z" fill="#231F20" fill-rule="evenodd"/><path d="M1355 673.442C1355.95 671.412 1357.5 669.676 1359.47 668.448 1360.79 667.269 1362.3 666.292 1363.94 665.551 1364.76 665.188 1365.65 665 1366.55 665 1367.46 665 1368.35 665.188 1369.17 665.551 1369.86 665.93 1370.45 666.447 1370.92 667.061 1371.38 667.679 1371.7 668.377 1371.85 669.119 1372.11 670.599 1372.03 672.117 1371.63 673.567 1370.78 676.756 1369.06 679.676 1366.62 682.036 1364.19 684.392 1361.14 686.107 1357.77 687.001L1358.44 686.621" fill="#FFFFFF" fill-rule="evenodd"/><path d="M1357.69 689C1357.28 689 1356.88 688.883 1356.53 688.659 1356.18 688.438 1355.91 688.12 1355.75 687.746 1355.56 687.277 1355.54 686.758 1355.69 686.277 1355.85 685.795 1356.17 685.383 1356.59 685.109L1357.27 684.731C1357.64 684.507 1358.07 684.42 1358.5 684.48 1361.01 683.523 1363.25 681.984 1365.04 680 1366.82 678.013 1368.11 675.634 1368.78 673.057 1369.05 671.903 1369.05 670.702 1368.78 669.544 1368.71 669.099 1368.54 668.671 1368.28 668.296 1368.02 667.922 1367.69 667.604 1367.3 667.37 1366.82 667.145 1366.29 667.028 1365.76 667.028 1365.22 667.028 1364.69 667.145 1364.21 667.37 1362.87 668.029 1361.64 668.889 1360.57 669.922 1359.04 670.963 1357.83 672.412 1357.1 674.105 1356.91 674.613 1356.53 675.028 1356.04 675.266 1355.55 675.5 1354.98 675.54 1354.46 675.37 1353.94 675.202 1353.51 674.841 1353.25 674.366 1352.99 673.887 1352.93 673.329 1353.08 672.807 1354.03 670.478 1355.63 668.464 1357.69 666.992 1359.08 665.683 1360.66 664.596 1362.39 663.77 1363.45 663.264 1364.62 663 1365.8 663 1366.98 663 1368.14 663.264 1369.2 663.77 1370.12 664.298 1370.91 665.008 1371.53 665.861 1372.15 666.711 1372.58 667.681 1372.8 668.708 1373.12 670.501 1373.05 672.342 1372.59 674.105 1371.7 677.648 1369.88 680.89 1367.3 683.506 1364.73 686.123 1361.5 688.02 1357.95 689L1357.69 689Z" fill="#231F20" fill-rule="evenodd"/><path d="M1339.86 701.984C1344.55 701.9 1349.11 700.515 1353 698 1353 698 1348.62 710.581 1336 711L1339.86 701.984Z" fill="#231F20" fill-rule="evenodd"/><path d="M1336.13 712.874C1335.79 712.871 1335.45 712.788 1335.14 712.639 1334.83 712.487 1334.57 712.272 1334.36 712.004 1334.17 711.713 1334.05 711.382 1334.01 711.038 1333.98 710.69 1334.02 710.342 1334.15 710.018L1337.99 701.123C1338.15 700.742 1338.42 700.421 1338.78 700.193 1339.13 699.965 1339.54 699.842 1339.97 699.839 1344.06 699.769 1348.06 698.575 1351.47 696.404 1351.85 696.143 1352.3 696 1352.77 696 1353.23 696 1353.68 696.143 1354.06 696.404 1354.45 696.655 1354.74 697.023 1354.89 697.45 1355.04 697.877 1355.04 698.337 1354.88 698.763 1354.66 699.342 1349.88 712.543 1336.22 713L1336.13 712.874ZM1341.47 703.893 1339.58 708.033C1342.77 707.083 1345.57 705.203 1347.6 702.652 1345.65 703.251 1343.64 703.668 1341.61 703.893L1341.47 703.893Z" fill="#231F20" fill-rule="evenodd"/><path d="M1343.75 660.302C1344.21 658.652 1344.02 657.182 1343.32 657.015 1342.63 656.849 1341.7 658.049 1341.25 659.698 1340.79 661.345 1340.98 662.818 1341.68 662.985 1342.37 663.152 1343.3 661.952 1343.75 660.302Z" fill="#231F20" fill-rule="evenodd"/><path d="M1333.66 689.997C1332.38 690.025 1331.1 689.831 1329.91 689.429 1328.72 689.024 1327.63 688.415 1326.71 687.642 1326.48 687.459 1326.31 687.24 1326.19 686.999 1326.06 686.755 1326 686.492 1326 686.226 1326 685.963 1326.06 685.701 1326.19 685.456 1326.31 685.215 1326.49 684.996 1326.71 684.816 1326.93 684.634 1327.2 684.498 1327.49 684.408 1327.78 684.319 1328.08 684.285 1328.39 684.303 1328.69 684.322 1328.99 684.393 1329.26 684.516 1329.53 684.637 1329.77 684.807 1329.96 685.014 1330.32 685.324 1333.48 687.834 1339.54 684.319 1340.03 684.037 1340.63 683.938 1341.21 684.037 1341.78 684.139 1342.29 684.436 1342.62 684.86 1342.78 685.067 1342.9 685.305 1342.96 685.552 1343.01 685.799 1343.01 686.056 1342.96 686.306 1342.9 686.554 1342.78 686.792 1342.62 686.999 1342.45 687.209 1342.24 687.388 1341.99 687.524 1339.57 689.07 1336.66 689.932 1333.66 689.997L1333.66 689.997Z" fill="#231F20" fill-rule="evenodd"/><path d="M1233.95 649.012 1233.18 650 978 464.117 1269.8 343C1290.54 392.811 1298.14 447.093 1291.86 500.665 1285.59 554.237 1265.65 605.311 1233.95 649.012L1233.95 649.012Z" fill="#FFFFFF" fill-rule="evenodd"/><path d="M1232.47 652.999C1232.03 652.996 1231.6 652.862 1231.23 652.61L976.875 466.281C976.566 466.061 976.326 465.759 976.172 465.411 976.021 465.064 975.969 464.682 976.017 464.304 976.062 463.925 976.206 463.564 976.429 463.255 976.656 462.945 976.957 462.701 977.304 462.539L1268.12 341.16C1268.65 340.947 1269.25 340.947 1269.79 341.16 1270.31 341.382 1270.73 341.798 1270.95 342.322 1291.6 392.626 1299.14 447.378 1292.84 501.41 1286.55 555.442 1266.63 606.978 1234.96 651.149L1234.19 652.181C1233.99 652.445 1233.73 652.659 1233.43 652.8 1233.13 652.944 1232.8 653.01 1232.47 652.999L1232.47 652.999ZM982.492 464.906 1232.04 647.709C1262.85 604.467 1282.28 554.128 1288.53 501.355 1294.79 448.585 1287.66 395.082 1267.82 345.806L982.492 464.906Z" fill="#231F20" fill-rule="evenodd"/><path d="M1381.29 734.129C1381.29 734.129 1285.94 697.199 1281.75 687.323 1278.48 679.678 1279.25 669.243 1278.13 661.169 1276.37 648.542 1276.67 635.918 1273.82 623.292 1273.42 621.897 1273.35 620.427 1273.61 618.999 1274 617.831 1274.61 616.753 1275.42 615.822 1276.97 613.546 1286.58 597.011 1278.52 597.44 1277.66 597.601 1276.88 598.058 1276.32 598.731 1275.29 599.803 1272.01 603.024 1272.01 603.024 1271.46 597.714 1270.55 592.45 1269.3 587.265 1268.53 585.029 1266.93 583.171 1264.83 582.069 1262.73 580.967 1260.29 580.706 1258 581.338 1255.77 581.702 1253.67 582.618 1251.89 584.009 1250.11 585.397 1248.71 587.21 1247.83 589.281 1247.47 590.946 1247.37 592.656 1247.52 594.349 1248.73 606.077 1249.03 617.876 1248.43 629.648 1247.09 639.95 1246.29 650.314 1246.02 660.695 1245.9 671.251 1246.39 681.804 1247.48 692.302 1248.3 699.043 1248.99 707.975 1253.56 713.432 1265.5 727.817 1347.63 775.87 1369.96 765.564 1392.29 755.259 1381.29 734.129 1381.29 734.129Z" fill="#FFFFFF" fill-rule="evenodd"/><path d="M1361.92 768.991C1346.02 768.991 1321.6 758.01 1306.78 750.548 1282.48 738.285 1258.36 722.547 1251.85 714.742 1247.24 709.166 1246.3 700.761 1245.52 694.029L1245.52 692.527C1244.41 681.957 1243.9 671.333 1244.01 660.706 1244.19 651.556 1244.87 642.424 1246.04 633.346L1246.43 629.488C1247.09 621.292 1247.01 613.051 1246.17 604.872 1245.91 601.484 1245.65 598.01 1245.52 594.537 1245.34 592.626 1245.47 590.699 1245.91 588.834 1246.89 586.388 1248.49 584.238 1250.55 582.585 1252.61 580.932 1255.06 579.835 1257.67 579.399 1260.44 578.648 1263.39 578.964 1265.94 580.284 1268.49 581.601 1270.44 583.827 1271.41 586.519 1272.55 590.459 1273.33 594.488 1273.74 598.569L1274.99 597.324C1275.89 596.258 1277.17 595.569 1278.56 595.394 1279.5 595.246 1280.46 595.39 1281.32 595.805 1282.18 596.22 1282.88 596.885 1283.34 597.708 1286.45 603.285 1277.44 617.009 1277.31 617.136 1276.72 617.897 1276.22 618.734 1275.85 619.626 1275.69 620.744 1275.78 621.886 1276.11 622.969 1277.52 630.418 1278.41 637.956 1278.78 645.527 1279.17 650.586 1279.55 655.86 1280.24 660.963 1280.63 663.71 1280.8 666.583 1280.98 669.54 1280.96 675.27 1281.89 680.966 1283.73 686.395 1286.36 692.612 1342.79 716.841 1381.99 732.022 1382.49 732.204 1382.9 732.554 1383.16 733.01 1386.19 739.245 1386.82 746.371 1384.92 753.038 1383.7 756.247 1381.83 759.166 1379.41 761.611 1376.99 764.056 1374.08 765.97 1370.88 767.232 1368.06 768.483 1365 769.083 1361.92 768.991L1361.92 768.991ZM1260.56 583.302C1259.84 583.305 1259.14 583.391 1258.44 583.559 1256.59 583.854 1254.84 584.591 1253.34 585.713 1251.84 586.834 1250.63 588.302 1249.83 589.993 1249.55 591.402 1249.47 592.846 1249.61 594.279 1249.61 597.708 1250 601.097 1250.22 604.485 1251.07 612.921 1251.17 621.419 1250.52 629.872L1250.09 633.734C1248.93 642.654 1248.27 651.628 1248.11 660.62 1247.98 671.076 1248.47 681.529 1249.57 691.927L1249.57 693.429C1250.3 699.646 1251.17 707.321 1254.96 711.909 1267.36 726.879 1348.05 772.893 1368.68 763.37 1371.35 762.338 1373.77 760.764 1375.8 758.748 1377.82 756.731 1379.4 754.32 1380.44 751.666 1382 746.412 1381.67 740.785 1379.49 735.754 1361.75 728.85 1283.86 698.144 1279.64 688.11 1277.6 682.232 1276.55 676.059 1276.54 669.841 1276.54 666.841 1276.24 664.053 1275.85 661.265 1275.12 655.991 1274.73 650.671 1274.38 645.527 1274.01 638.158 1273.14 630.823 1271.8 623.569 1271.29 621.827 1271.22 619.986 1271.58 618.209 1271.98 616.91 1272.62 615.702 1273.48 614.65 1276.62 610.359 1280.72 600.84 1279.42 599.468 1279.19 599.392 1278.93 599.392 1278.69 599.468 1278.39 599.649 1278.13 599.88 1277.92 600.154L1273.61 604.444C1273.33 604.732 1272.98 604.934 1272.59 605.023 1272.2 605.116 1271.79 605.092 1271.41 604.958 1271.03 604.811 1270.69 604.567 1270.44 604.252 1270.18 603.936 1270.01 603.559 1269.95 603.158 1269.49 598.068 1268.64 593.021 1267.4 588.062 1266.91 586.652 1265.98 585.435 1264.75 584.581 1263.52 583.727 1262.06 583.281 1260.56 583.302L1260.56 583.302Z" fill="#231F20" fill-rule="evenodd"/><path d="M1378.89 780.859 1301 754.075 1306.52 690C1306.52 690 1379.15 716.74 1390.2 731.264 1401.25 745.788 1408.97 783.592 1378.89 780.859Z" fill="#C00000" fill-rule="evenodd"/><path d="M1382.68 783.995C1365.18 783.995 1317.95 760.962 1312.21 758.066 1311.95 757.948 1311.72 757.779 1311.54 757.568 1311.35 757.361 1311.21 757.115 1311.12 756.849 1311.02 756.583 1310.99 756.303 1311 756.023 1311.02 755.74 1311.09 755.467 1311.22 755.215 1311.34 754.959 1311.51 754.731 1311.72 754.541 1311.94 754.354 1312.18 754.209 1312.45 754.116 1312.72 754.026 1313 753.984 1313.28 754.005 1313.56 754.022 1313.84 754.095 1314.09 754.219 1338.03 766.018 1376.64 782.399 1385.05 779.33 1388.02 778.182 1390.48 775.998 1391.99 773.175 1393.51 770.355 1393.96 767.078 1393.28 763.944 1393.16 763.37 1393.28 762.776 1393.6 762.289 1393.93 761.805 1394.43 761.466 1395 761.352 1395.56 761.238 1396.15 761.356 1396.64 761.677 1397.12 762.002 1397.45 762.507 1397.57 763.08 1398.5 767.231 1397.9 771.585 1395.88 775.324 1393.86 779.064 1390.56 781.932 1386.59 783.39 1385.33 783.829 1384.01 784.037 1382.68 783.995L1382.68 783.995Z" fill="#231F20" fill-rule="evenodd"/><path d="M864 950.346 859.705 958.978C848.023 981.594 840.165 1029.72 816.499 1051.99 807.91 1060.2 726.565 1117 726.565 1117L716 1088.47C716 1088.47 777.375 1025.58 783.731 1018.98 791.847 1010.64 826.463 890 826.463 890L864 950.346Z" fill="#FFFFFF" fill-rule="evenodd"/><path d="M726.481 1118.97C726.269 1119.01 726.052 1119.01 725.84 1118.97 725.521 1118.87 725.233 1118.7 724.992 1118.47 724.752 1118.23 724.574 1117.95 724.468 1117.63L714.131 1089.14C713.994 1088.75 713.963 1088.34 714.045 1087.95 714.131 1087.55 714.323 1087.19 714.604 1086.89L782.274 1017.48C787.935 1011.66 810.533 937.811 824.341 889.568 824.465 889.165 824.701 888.806 825.021 888.531 825.34 888.255 825.728 888.079 826.142 888.017 826.551 887.965 826.963 888.034 827.336 888.206 827.707 888.382 828.023 888.662 828.246 889.006L865.725 949.363C865.904 949.695 866 950.067 866 950.442 866 950.818 865.904 951.191 865.725 951.522L861.437 960.144C857.066 969.574 853.358 979.296 850.329 989.245 842.654 1012.35 833.906 1038.48 817.823 1053.65 809.246 1061.85 731.113 1116.47 727.768 1118.76 727.37 1118.95 726.924 1119.03 726.481 1118.97L726.481 1118.97ZM718.635 1088.79 727.555 1113.37C740.763 1104.1 807.102 1057.32 814.78 1050.25 830.133 1035.85 838.664 1010.24 846.212 987.649 849.282 977.475 853.066 967.536 857.533 957.9L861.437 950.356 827.13 895.215C820.139 919.532 792.824 1012.52 785.317 1020.24 779.444 1026.54 726.396 1080.9 718.635 1088.88L718.635 1088.79Z" fill="#231F20" fill-rule="evenodd"/><path d="M716.524 1088C716.524 1088 692.827 1091.93 693.001 1095.43 693.175 1098.93 712.044 1158.27 719.087 1155.93 726.131 1153.6 727 1116.78 727 1116.78L716.524 1088Z" fill="#231F20" fill-rule="evenodd"/><path d="M718.642 1158C717.779 1157.97 716.942 1157.7 716.224 1157.22 707.24 1151.23 691.173 1098.46 691 1095.66 691 1094.06 690.741 1090.26 716.182 1086.04 716.676 1085.94 717.188 1086.03 717.623 1086.29 718.059 1086.54 718.39 1086.94 718.556 1087.42L728.967 1115.94C729.012 1116.2 729.012 1116.48 728.967 1116.75 728.749 1125.64 727.498 1154.98 719.679 1157.78 719.347 1157.91 718.998 1157.99 718.642 1158L718.642 1158ZM695.406 1095.96C696.746 1103.33 713.072 1151.7 718.774 1153.69 721.365 1152.65 724.302 1135.91 724.775 1117.06L715.101 1090.61C708.325 1091.5 701.701 1093.3 695.406 1095.96L695.406 1095.96Z" fill="#231F20" fill-rule="evenodd"/><path d="M892.138 932.964C892.138 932.964 893.255 936.485 895.015 942.238 902.622 966.401 922.343 1039.88 922.989 1049.54 923.762 1061.47 884.661 1148 884.661 1148L854.969 1142.76C854.969 1142.76 876.669 1049.88 876.453 1040.87 876.453 1029.24 823 917 823 917L892.138 932.964Z" fill="#FFFFFF" fill-rule="evenodd"/><path d="M884.704 1150 884.361 1150 854.628 1144.77C854.336 1144.73 854.055 1144.63 853.811 1144.46 853.564 1144.3 853.362 1144.08 853.214 1143.83 853.046 1143.59 852.933 1143.31 852.881 1143.03 852.83 1142.74 852.84 1142.44 852.912 1142.16 858.918 1116.44 874.579 1048.13 874.363 1040.84 874.363 1032.69 842.53 962.962 821.209 918.046 821.034 917.686 820.969 917.289 821.014 916.895 821.058 916.501 821.216 916.127 821.466 915.815 821.717 915.503 822.05 915.266 822.431 915.129 822.808 914.992 823.217 914.965 823.612 915.044L892.513 931.074C892.873 931.162 893.206 931.344 893.477 931.598 893.748 931.855 893.947 932.177 894.057 932.53L896.974 941.791C904.268 965.018 924.301 1039.17 924.988 1049.41 925.76 1061.54 890.666 1139.89 886.376 1148.8 886.221 1149.13 885.985 1149.4 885.693 1149.61 885.401 1149.83 885.061 1149.96 884.704 1150ZM857.59 1140.91 883.331 1145.46C898.903 1110.87 921.257 1057.9 920.698 1049.67 920.097 1040.45 900.705 968.233 892.897 943.032L890.367 934.933 826.958 920.188C837.467 942.346 878.441 1029.91 878.654 1040.75 878.87 1049.45 860.978 1126.6 857.59 1140.91Z" fill="#231F20" fill-rule="evenodd"/><path d="M783.857 679.02C777.544 679.45 771.382 681.167 765.764 684.066 755.964 688.726 746.594 696.421 744.273 707.023 743.218 715.806 745.236 724.684 749.988 732.161 754.723 739.553 758.629 747.436 761.638 755.676 764 764.226 762.927 774.315 756.178 780 765.272 776.499 773.745 771.58 781.278 765.422 785.714 761.781 788.622 756.629 789.444 750.971 789.39 746.311 788.241 741.73 786.092 737.59 782.898 731.429 780.817 724.759 779.947 717.881 779.538 714.442 780.075 710.958 781.498 707.795 782.922 704.633 785.177 701.915 788.028 699.925 793.271 696.889 810.419 697.146 807.713 687.57 805.777 680.261 789.96 678.804 783.857 679.02Z" fill="#FFFFFF" fill-rule="evenodd"/><path d="M756.439 782C756.003 781.997 755.579 781.859 755.228 781.604 754.874 781.353 754.604 780.995 754.454 780.585 754.307 780.172 754.287 779.724 754.396 779.3 754.509 778.877 754.744 778.498 755.071 778.212 761.553 772.657 761.682 762.752 759.806 755.947 757.848 749.885 755.14 744.096 751.745 738.72 750.637 736.74 749.487 734.756 748.42 732.734 742.835 722.223 740.959 713.696 742.538 705.944 745.223 692.636 757.674 684.798 764.838 681.309 770.681 678.268 777.081 676.463 783.644 676.012L783.644 676.012C783.644 676.012 806.584 675.237 809.61 686.179 809.948 687.202 810.067 688.286 809.965 689.364 809.862 690.439 809.538 691.479 809.013 692.423 806.669 696.469 800.696 697.892 795.453 699.142 793.274 699.517 791.152 700.185 789.143 701.122 786.659 702.92 784.698 705.362 783.47 708.186 782.238 711.013 781.785 714.12 782.15 717.185 782.962 723.546 784.838 729.721 787.693 735.445L788.034 736.306C790.361 740.783 791.561 745.766 791.53 750.822 790.732 757.083 787.587 762.8 782.747 766.799 775.071 773.17 766.431 778.26 757.162 781.873 756.93 781.956 756.685 782 756.439 782L756.439 782ZM783.814 680.276C777.858 680.7 772.052 682.356 766.758 685.142 760.277 688.286 749.061 695.264 746.758 706.677 745.394 713.396 747.14 720.977 752.216 730.537 753.281 732.517 754.393 734.497 755.501 736.478 759.107 742.157 761.976 748.281 764.029 754.697 765.895 761.178 765.578 768.101 763.132 774.379 769.32 771.617 775.064 767.945 780.188 763.482 784.132 760.228 786.769 755.637 787.608 750.564 787.532 746.207 786.451 741.933 784.452 738.073L784.07 737.211C781.007 731.04 779.015 724.383 778.186 717.529 777.756 713.661 778.377 709.749 779.977 706.206 781.573 702.665 784.094 699.627 787.266 697.416 789.651 696.276 792.175 695.467 794.771 695.005 799.035 693.972 804.193 692.722 805.643 690.27 805.841 689.812 805.943 689.323 805.943 688.827 805.943 688.328 805.841 687.839 805.643 687.384 804.108 681.87 790.763 680.062 783.94 680.362L783.814 680.276Z" fill="#231F20" fill-rule="evenodd"/><path d="M791.45 680.626C789.375 684.275 788.585 688.525 789.206 692.685 789.41 695.481 790.414 698.158 792.099 700.389 793.234 701.649 794.642 702.624 796.212 703.244 797.783 703.863 799.477 704.107 801.158 703.958 802.673 703.926 804.119 703.32 805.213 702.262 806.007 701.273 806.518 700.083 806.68 698.823 808.534 690.071 802.193 663.516 791.45 680.626Z" fill="#231F20" fill-rule="evenodd"/><path d="M800.275 705.828C798.448 705.855 796.638 705.483 794.964 704.742 793.289 703.997 791.796 702.897 790.578 701.518 788.635 699.046 787.464 696.043 787.216 692.896 786.545 688.289 787.447 683.59 789.768 679.574L789.768 679.574C794.021 672.675 797.979 672.416 800.446 673.451 807.166 676.209 810.059 692.42 808.653 699.319 808.395 700.908 807.721 702.397 806.697 703.628 805.267 705.1 803.331 705.949 801.297 706L800.275 705.828ZM793.341 681.642C791.551 684.845 790.877 688.565 791.428 692.206 791.591 694.547 792.419 696.795 793.81 698.67 794.715 699.653 795.828 700.418 797.067 700.901 798.302 701.387 799.632 701.584 800.956 701.473 801.906 701.446 802.817 701.098 803.549 700.484 804.063 699.791 804.386 698.97 804.485 698.112 805.761 692.075 802.658 678.798 798.87 677.202 796.914 676.467 794.362 680.046 793.341 681.511L793.341 681.642Z" fill="#231F20" fill-rule="evenodd"/><path d="M847.998 736.667C846.393 738.402 844.36 739.684 842.096 740.39 839.835 741.092 837.427 741.191 835.115 740.676 829.842 739.94 824.826 737.935 820.515 734.837 812.095 728.967 805.496 720.882 801.452 711.491 797.409 702.1 796.083 691.779 797.625 681.682 801.061 661.264 821.546 640.931 843.618 648.689 847.338 650.029 850.722 652.163 853.525 654.941 856.328 657.716 858.489 661.067 859.85 664.758 861.344 664.267 862.948 664.213 864.474 664.608 865.996 665 867.373 665.825 868.438 666.977 874.147 672.601 873.935 678.655 870.884 685.431 865.861 696.602 859.678 707.217 855.167 718.595 852.721 725.204 851.732 732.321 847.998 736.667Z" fill="#FFFFFF" fill-rule="evenodd"/><path d="M837.761 742.954C836.836 743.016 835.905 743.016 834.979 742.954 829.341 742.236 823.979 740.111 819.392 736.777 810.609 730.699 803.73 722.282 799.54 712.489 795.354 702.699 794.025 691.932 795.71 681.424 796.837 674.937 799.325 668.76 803.014 663.292 806.703 657.826 811.51 653.195 817.121 649.702 821.129 647.226 825.651 645.681 830.341 645.18 835.034 644.676 839.779 645.234 844.229 646.804 847.925 648.132 851.317 650.189 854.194 652.852 857.072 655.514 859.378 658.732 860.97 662.304 862.594 662.168 864.225 662.393 865.753 662.958 867.277 663.527 868.658 664.422 869.792 665.583 872.542 668.236 874.32 671.726 874.841 675.503 875.362 679.275 874.595 683.116 872.662 686.406 870.607 691.006 868.38 695.562 866.109 699.989 862.94 706.292 859.686 712.765 857.075 719.404 856.219 721.536 855.534 723.664 854.89 725.877 853.896 730.28 852.016 734.438 849.368 738.099L849.368 738.099C847.918 739.716 846.123 740.993 844.116 741.834 842.108 742.675 839.936 743.056 837.761 742.954L837.761 742.954ZM833.952 649.276C828.83 649.382 823.832 650.853 819.478 653.532 814.377 656.699 809.999 660.891 806.628 665.842 803.261 670.793 800.969 676.391 799.907 682.275 798.444 691.976 799.722 701.889 803.593 710.912 807.464 719.932 813.778 727.71 821.832 733.372 825.819 736.311 830.488 738.201 835.407 738.865 837.347 739.328 839.371 739.273 841.283 738.705 843.194 738.136 844.917 737.074 846.284 735.63L846.284 735.63C848.504 732.392 850.087 728.765 850.95 724.941 851.635 722.684 852.365 720.385 853.263 718.128 855.962 711.358 859.257 704.759 862.426 698.371 864.653 694.111 866.924 689.47 868.935 684.959 872.018 678.104 871.419 673.289 866.924 668.862 866.167 668.021 865.184 667.409 864.095 667.102 863.002 666.792 861.844 666.795 860.758 667.115 860.487 667.242 860.196 667.306 859.901 667.306 859.603 667.306 859.312 667.242 859.045 667.115 858.768 667.003 858.521 666.836 858.312 666.625 858.106 666.411 857.949 666.159 857.846 665.883 856.613 662.481 854.636 659.396 852.06 656.849 849.484 654.299 846.37 652.355 842.944 651.149 840.084 649.984 837.038 649.334 833.952 649.232L833.952 649.276Z" fill="#231F20" fill-rule="evenodd"/><path d="M864 690C864 690 878.064 701.225 876.936 704.653 875.81 708.085 868.508 708 868.508 708" fill="#FFFFFF" fill-rule="evenodd"/><path d="M868.772 710C868.49 710 868.207 709.944 867.946 709.833 867.684 709.725 867.447 709.565 867.248 709.36 867.046 709.158 866.892 708.918 866.788 708.653 866.683 708.389 866.631 708.107 866.638 707.826 866.638 707.248 866.864 706.695 867.276 706.287 867.684 705.88 868.239 705.651 868.818 705.651 871.084 705.651 874.398 704.955 874.789 703.734 871.618 698.838 867.621 694.524 862.976 690.985 862.717 690.818 862.501 690.596 862.337 690.338 862.173 690.077 862.065 689.788 862.024 689.482 861.978 689.18 861.999 688.87 862.086 688.578 862.17 688.282 862.316 688.007 862.512 687.774 862.711 687.541 862.955 687.349 863.234 687.217 863.509 687.081 863.813 687.008 864.12 687.001 864.426 686.991 864.73 687.047 865.012 687.165 865.298 687.283 865.553 687.457 865.766 687.68 872.48 693.379 880.195 700.995 878.845 705.084 877.405 710 870.08 710 868.772 710Z" fill="#231F20" fill-rule="evenodd"/><path d="M871.973 766.931C856.888 768.147 831.001 752.905 830.829 752.339 828.052 742.473 825.774 732.471 824 722.376 827.478 721.015 830.511 718.712 832.761 715.722 835.012 712.732 836.395 709.173 836.748 705.439 839.255 691.454 852.093 689.326 857.061 671 864.453 674.129 865.705 684.985 867.565 691.715 870.245 701.182 872.665 710.694 874.912 720.292 876.295 726.37 860.909 731.016 857.625 730.019L871.973 766.931Z" fill="#FFFFFF" fill-rule="evenodd"/><path d="M870.369 769C855.574 769 829.768 755.556 828.908 752.876 826.073 742.92 823.775 732.818 822.027 722.613 821.944 722.084 822.054 721.541 822.34 721.088 822.622 720.635 823.062 720.3 823.575 720.148 826.63 718.903 829.283 716.836 831.248 714.174 833.213 711.516 834.413 708.363 834.716 705.061 836.075 698.849 839.32 693.213 844.006 688.937 849.195 683.879 852.976 677.546 854.972 670.563 855.058 670.269 855.203 669.992 855.402 669.761 855.602 669.526 855.846 669.335 856.125 669.204 856.4 669.076 856.703 669.004 857.009 669 857.312 668.997 857.618 669.055 857.897 669.18 864.995 672.205 867.015 680.723 868.649 687.596 868.952 688.851 869.251 690.061 869.595 691.184 872.221 700.653 874.671 710.25 876.865 719.761 877.113 720.946 877.017 722.18 876.59 723.315 876.164 724.445 875.424 725.434 874.457 726.16 870.504 729.316 865.78 731.345 860.78 732.037 863.275 738.522 864.393 741.461 873.683 765.802 873.831 766.103 873.907 766.439 873.907 766.774 873.907 767.113 873.831 767.444 873.683 767.745 873.494 768.029 873.246 768.264 872.957 768.437 872.664 768.609 872.341 768.713 872.004 768.741L870.369 769ZM832.779 750.93C836.306 753.309 855.66 763.901 868.735 764.634L855.619 730.872C855.475 730.492 855.437 730.084 855.512 729.686 855.588 729.289 855.774 728.919 856.049 728.621 856.324 728.317 856.682 728.099 857.078 727.992 857.474 727.885 857.893 727.892 858.286 728.016 863.133 727.819 867.796 726.094 871.619 723.09 872.479 722.267 872.823 721.534 872.692 720.884 870.5 711.46 868.047 701.905 865.425 692.526 865.122 691.402 864.823 690.102 864.479 688.764 863.794 683.555 861.647 678.649 858.286 674.628 855.908 681.148 852.116 687.053 847.189 691.921 843.06 695.62 840.177 700.512 838.931 705.925 838.47 709.669 837.104 713.241 834.95 716.331 832.8 719.422 829.926 721.935 826.586 723.65 827.491 728.666 830.243 742.889 832.779 750.93Z" fill="#231F20" fill-rule="evenodd"/><path d="M872 713C871.257 713.941 870.338 714.699 869.302 715.216 868.266 715.734 867.141 716 866.002 716 864.863 716 863.734 715.734 862.698 715.216 861.662 714.699 860.743 713.941 860 713" fill="#FFFFFF" fill-rule="evenodd"/><path d="M865.736 718.955C864.378 718.907 863.045 718.544 861.819 717.893 860.597 717.242 859.505 716.311 858.623 715.167 858.424 714.949 858.269 714.691 858.162 714.407 858.054 714.119 858 713.816 858 713.506 858 713.199 858.054 712.893 858.162 712.608 858.269 712.324 858.424 712.066 858.623 711.849 859.024 711.415 859.559 711.176 860.118 711.176 860.674 711.176 861.209 711.415 861.61 711.849 862.099 712.578 862.732 713.173 863.462 713.577 864.197 713.985 865.005 714.19 865.82 714.186 867.574 713.966 869.205 713.091 870.451 711.707 870.643 711.482 870.868 711.307 871.124 711.183 871.377 711.06 871.65 711 871.926 711 872.202 711 872.474 711.06 872.727 711.183 872.983 711.307 873.209 711.482 873.397 711.707 873.785 712.145 874 712.732 874 713.345 874 713.955 873.785 714.542 873.397 714.98 871.37 717.31 868.645 718.738 865.736 719L865.736 718.955Z" fill="#231F20" fill-rule="evenodd"/><path d="M857.241 729.531C854.982 730.041 852.643 730.079 850.367 729.643 848.09 729.211 845.923 728.311 844 727 844 727 848.67 741.432 862 742.001L857.241 729.531Z" fill="#231F20" fill-rule="evenodd"/><path d="M861.783 744C847.309 743.361 842.315 728.5 842.102 727.858 841.962 727.421 841.966 726.946 842.112 726.509 842.254 726.072 842.535 725.693 842.907 725.427 843.273 725.147 843.716 725 844.177 725 844.634 725 845.077 725.147 845.447 725.427 847.085 726.502 848.924 727.237 850.85 727.582 852.777 727.926 854.754 727.875 856.66 727.431 857.165 727.315 857.696 727.383 858.153 727.626 858.61 727.868 858.969 728.271 859.159 728.756L863.855 740.968C863.983 741.299 864.028 741.654 863.983 742.005 863.939 742.357 863.807 742.692 863.601 742.976 863.408 743.29 863.14 743.546 862.822 743.723 862.504 743.904 862.145 744 861.783 744ZM848.663 731.744C850.955 735.347 854.456 737.997 858.522 739.219L855.729 732.045C853.383 732.39 850.996 732.345 848.663 731.915L848.663 731.744Z" fill="#231F20" fill-rule="evenodd"/><path d="M860.217 688.989C860.945 688.847 861.214 687.395 860.817 685.744 860.42 684.095 859.51 682.869 858.783 683.011 858.055 683.153 857.786 684.605 858.183 686.254 858.581 687.905 859.49 689.128 860.217 688.989Z" fill="#231F20" fill-rule="evenodd"/><path d="M846 699.644C845.127 697.386 843.683 695.417 841.82 693.945 840.496 692.619 838.988 691.503 837.35 690.64 836.514 690.219 835.601 690 834.675 690 833.748 690 832.832 690.219 832 690.64 831.297 691.065 830.689 691.638 830.221 692.331 829.752 693.023 829.432 693.809 829.281 694.641 828.906 696.3 828.906 698.03 829.281 699.689 830.117 703.297 831.849 706.612 834.307 709.302 836.768 711.991 839.864 713.956 843.285 715L842.616 714.565" fill="#FFFFFF" fill-rule="evenodd"/><path d="M843.855 716.914 843.294 716.914C839.388 715.791 835.85 713.645 833.045 710.7 830.24 707.758 828.272 704.117 827.336 700.156 826.888 698.2 826.888 696.167 827.336 694.211 827.563 693.087 828.031 692.023 828.709 691.093 829.383 690.163 830.25 689.391 831.249 688.827 832.402 688.282 833.658 688 834.928 688 836.201 688 837.457 688.282 838.607 688.827 840.506 689.753 842.247 690.976 843.769 692.447 846.078 694.135 847.854 696.453 848.886 699.122 848.979 699.391 849.017 699.677 848.993 699.96 848.972 700.242 848.89 700.518 848.759 700.769 848.625 701.017 848.443 701.238 848.219 701.413 847.998 701.592 847.744 701.72 847.468 701.792 846.925 701.954 846.343 701.895 845.844 701.63 845.345 701.365 844.97 700.914 844.801 700.373 843.962 698.496 842.64 696.877 840.971 695.678 839.77 694.507 838.39 693.532 836.886 692.791 836.318 692.529 835.702 692.392 835.079 692.392 834.456 692.392 833.84 692.529 833.272 692.791 832.814 693.063 832.419 693.432 832.116 693.87 831.813 694.31 831.603 694.806 831.507 695.333 831.214 696.667 831.214 698.048 831.507 699.381 832.267 702.305 833.713 705.002 835.726 707.252 837.739 709.498 840.262 711.23 843.081 712.305 843.504 712.26 843.93 712.367 844.285 712.605L844.973 712.994C845.379 713.235 845.696 713.604 845.871 714.044 846.047 714.482 846.075 714.968 845.947 715.426 845.82 715.88 845.545 716.284 845.166 716.566 844.791 716.852 844.326 717.003 843.855 717L843.855 716.914Z" fill="#231F20" fill-rule="evenodd"/><path d="M883.245 760.485C883.245 760.485 839.213 738.29 823.586 753.086 807.959 767.883 808.822 816.183 808 897L902.971 890.462C902.971 890.462 904.612 772.227 883.245 760.485Z" fill="#C00000" fill-rule="evenodd"/><path d="M808.16 896.423 763 1017.14C763 1017.14 878.859 1056.81 932 1047.62L903.228 890 808.16 896.423Z" fill="#231F20" fill-rule="evenodd"/><path d="M913.344 1050.98C856.751 1050.98 767.43 1020.55 763.404 1019.09 763.133 1019 762.883 1018.85 762.67 1018.65 762.454 1018.47 762.283 1018.23 762.16 1017.97 761.947 1017.43 761.947 1016.83 762.16 1016.29L807.015 895.959C807.162 895.567 807.416 895.223 807.752 894.972 808.084 894.721 808.482 894.57 808.9 894.539L903.149 888.01C903.673 887.958 904.197 888.116 904.612 888.443 905.026 888.769 905.301 889.247 905.376 889.769L933.949 1047.24C934.014 1047.51 934.017 1047.8 933.959 1048.07 933.897 1048.35 933.777 1048.61 933.606 1048.83 933.452 1049.06 933.249 1049.27 933.013 1049.42 932.777 1049.58 932.513 1049.68 932.235 1049.73 925.987 1050.69 919.664 1051.1 913.344 1050.98L913.344 1050.98ZM766.7 1015.74C782.294 1020.89 880.7 1052.7 929.493 1045.82L901.647 892.436 810.312 898.708 766.7 1015.74Z" fill="#231F20" fill-rule="evenodd"/><path d="M854.969 1143C854.969 1143 846.579 1165.44 849.693 1167.05 852.807 1168.65 913.616 1182.19 914.959 1174.81 916.298 1167.44 884.943 1148.3 884.943 1148.3L854.969 1143Z" fill="#231F20" fill-rule="evenodd"/><path d="M906.991 1178.95C889.239 1178.95 851.25 1169.96 849.106 1168.88 846.962 1167.81 844.262 1166.43 853.394 1142.37 853.568 1141.9 853.901 1141.52 854.33 1141.27 854.762 1141.03 855.266 1140.94 855.754 1141.04L885.466 1146.29C885.723 1146.33 885.97 1146.41 886.197 1146.54 893.785 1151.19 918.396 1166.95 916.938 1175.08 916.801 1175.7 916.52 1176.27 916.115 1176.76 915.714 1177.24 915.203 1177.63 914.623 1177.88 912.184 1178.77 909.584 1179.14 906.991 1178.95L906.991 1178.95ZM851.507 1165.27C858.539 1167.81 908.277 1177.83 912.822 1173.87 913.21 1171.12 900.216 1160.23 884.224 1150.42L856.697 1145.51C854.165 1151.85 852.478 1158.49 851.678 1165.27L851.507 1165.27Z" fill="#231F20" fill-rule="evenodd"/><path d="M858.618 759.934C872.839 764.923 923.297 799.277 927.152 794.332 931.007 789.388 950.282 736.542 950.197 732.973 950.111 729.407 938.93 726.825 942.572 725.449L954.309 721.151C954.309 721.151 950.882 699.134 964.589 698.017 969.941 697.542 973.927 707.132 972.813 721.581 972.213 729.665 962.447 812.563 950.152 827.7 937.861 842.836 918.027 839.267 881.104 818.67 844.182 798.074 826.836 781.562 831.846 769.651 836.859 757.74 842.085 754.171 858.618 759.934Z" fill="#FFFFFF" fill-rule="evenodd"/><path d="M930.477 838.991C916.985 838.991 900.063 831.552 880.231 820.503 840.993 798.623 824.543 781.816 830.027 768.918 835.938 754.906 842.878 752.41 859.241 758.172 869.426 762.789 879.299 768.076 888.799 773.992 901.992 781.685 921.783 793.422 925.851 792.865 930.134 786.931 947.869 737.711 948.211 733.112 946.93 731.991 945.487 731.08 943.928 730.403 941.443 729.028 939.644 728.038 939.644 726.103 939.706 725.518 939.942 724.965 940.326 724.518 940.71 724.074 941.217 723.755 941.786 723.61L951.94 719.825C951.553 715.872 951.21 706.329 955.709 700.568 956.731 699.241 958.023 698.148 959.5 697.36 960.98 696.573 962.608 696.116 964.277 696.013 965.295 695.951 966.312 696.116 967.262 696.494 968.208 696.872 969.061 697.457 969.76 698.203 973.742 702.159 975.627 711.1 974.815 721.891 974.815 722.751 965.26 812.466 951.683 829.145 949.143 832.318 945.909 834.855 942.231 836.564 938.551 838.272 934.527 839.101 930.477 838.991L930.477 838.991ZM845.876 759.461C839.451 759.461 836.921 763.418 833.968 770.465 831.01 777.515 836.88 791.4 882.287 816.722 919.425 837.44 937.417 840.022 948.64 826.264 959.863 812.507 970.058 733.583 970.874 721.376 971.686 710.025 969.331 703.363 967.018 701.083 966.778 700.757 966.46 700.496 966.093 700.331 965.726 700.165 965.318 700.1 964.918 700.138 963.824 700.172 962.752 700.451 961.779 700.956 960.809 701.461 959.962 702.184 959.308 703.06 955.024 708.78 956.566 720.643 956.607 720.774 956.676 721.262 956.57 721.764 956.313 722.187 956.055 722.61 955.661 722.93 955.195 723.094L946.114 726.491C949.068 728.079 952.454 729.929 952.495 732.94 952.495 736.721 933.39 790.328 928.979 795.701 925.81 799.568 916.642 795.054 886.656 777.601 877.387 771.812 867.757 766.629 857.826 762.084 854.015 760.516 849.982 759.574 845.876 759.289L845.876 759.461Z" fill="#231F20" fill-rule="evenodd"/></g></svg>